<?xml version="1.0" encoding="UTF-8"?> <svg xmlns="http://www.w3.org/2000/svg" width="600" height="178" viewBox="0 0 600 178" fill="none"> <g clip-path="url(#clip0)"> <path d="M389.9 23.1002L390.7 52.7002H374.2V0.200195H397.3L406.8 28.4002H407.2L415.4 0.200195H439.2V52.7002H422L422.5 23.2002L422.1 23.1002L412.3 52.7002H400L390.4 23.1002H389.9ZM463.6 0.300201H482.3L502.8 52.8002H483.6L480.9 45.1002H464.2L461.6 52.8002H442.9L463.6 0.300201ZM472.7 18.6002L468.4 31.6002H476.9L472.7 18.6002ZM523.8 31.9002H523.7V52.8002H506.6V0.300201H523.6V19.6002H523.7L537.7 0.300201H558.4L538.7 24.3002L559.4 52.8002H537.7L523.8 31.9002ZM563.1 0.300201H599.2V15.0002H579.7V19.5002H598V33.2002H579.7V38.1002H600.4V52.8002H563.1V0.300201V0.300201ZM397.9 116C394.3 116.1 390.6 115.5 387.2 114.3C384.4 113.3 381.8 111.7 379.6 109.6C377.6 107.6 376 105.3 375.1 102.6C374.1 99.8002 373.6 96.8002 373.6 93.9002V62.0002H391.2V92.0002C391.2 94.5002 391.8 96.5002 393 97.9002C395.9 100.7 400.4 100.7 403.3 97.9002C404.5 96.5002 405.1 94.5002 405.1 92.0002V62.1002H422.7V94.0002C422.7 97.0002 422.2 99.9002 421.1 102.7C420.1 105.3 418.5 107.7 416.4 109.7C414.2 111.8 411.5 113.4 408.7 114.4C405.2 115.5 401.5 116.1 397.9 116ZM448.9 116C446.8 116 444.7 115.8 442.6 115.4C440.6 115 438.6 114.5 436.7 113.8C434.8 113.1 433.1 112.3 431.3 111.3C429.7 110.4 428.2 109.3 426.8 108.1L437.5 96.4002C438.9 97.9002 440.6 99.1002 442.4 100C444.4 101 446.5 101.5 448.7 101.6C449.6 101.6 450.5 101.4 451.4 101.1C452.2 100.8 452.7 100 452.6 99.2002C452.6 98.7002 452.5 98.3002 452.2 97.9002C451.8 97.5002 451.3 97.1002 450.8 96.8002C449.9 96.3002 448.9 95.9002 447.9 95.6002C446.7 95.1002 445.2 94.6002 443.3 94.0002C441.5 93.4002 439.8 92.7002 438.2 91.9002C436.6 91.1002 435.2 90.1002 433.9 88.9002C432.6 87.7002 431.6 86.2002 430.9 84.6002C430.1 82.7002 429.7 80.7002 429.8 78.6002C429.7 75.7002 430.4 72.8002 431.8 70.3002C433.1 68.1002 434.8 66.2002 436.9 64.7002C439 63.2002 441.4 62.1002 444 61.5002C446.5 60.9002 449.2 60.5002 451.8 60.5002C455.4 60.5002 459 61.2002 462.4 62.5002C465.9 63.8002 469.1 65.7002 471.9 68.2002L460.9 79.4002C459.7 77.9002 458.2 76.8002 456.5 76.0002C455 75.3002 453.5 74.9002 451.8 74.8002C450.7 74.8002 449.7 74.9002 448.7 75.4002C448 75.7002 447.5 76.4002 447.5 77.2002C447.5 78.0002 448 78.7002 448.7 79.0002C450 79.6002 451.3 80.1002 452.7 80.5002C454.6 81.1002 456.5 81.8002 458.6 82.6002C460.6 83.4002 462.6 84.4002 464.3 85.7002C466 86.9002 467.5 88.5002 468.6 90.3002C469.8 92.4002 470.4 94.7002 470.3 97.1002C470.4 100 469.7 102.8 468.4 105.4C467.2 107.7 465.5 109.7 463.4 111.3C461.3 112.9 459 114.1 456.5 114.8C454.2 115.7 451.6 116 448.9 116ZM477.5 62.1002H513.6V76.8002H494.1V81.3002H512.4V95.0002H494.1V99.9002H514.8V114.6H477.5V62.1002V62.1002ZM371.9 149.8C371.8 145.9 372.6 142 374.1 138.4C375.5 135.1 377.6 132.2 380.2 129.8C382.9 127.4 386 125.5 389.4 124.3C396.9 121.7 405 121.7 412.5 124.3C415.9 125.5 419.1 127.4 421.8 129.8C424.4 132.2 426.5 135.2 427.9 138.4C429.4 142 430.2 145.9 430.1 149.8C430.2 153.7 429.4 157.6 427.9 161.3C426.5 164.6 424.4 167.7 421.8 170.2C419.1 172.7 415.9 174.6 412.5 175.9C405 178.6 396.9 178.6 389.4 175.9C386 174.6 382.9 172.7 380.2 170.2C377.6 167.7 375.5 164.7 374.1 161.4C372.7 157.6 371.9 153.7 371.9 149.8ZM390.7 149.8C390.7 151.4 390.9 153 391.5 154.5C392 155.9 392.7 157.1 393.7 158.2C394.6 159.2 395.7 160.1 397 160.6C398.3 161.2 399.7 161.5 401.1 161.5C403.9 161.5 406.6 160.3 408.5 158.2C409.5 157.1 410.2 155.9 410.7 154.5C411.2 153 411.5 151.4 411.5 149.8C411.5 148.2 411.3 146.7 410.7 145.2C410.2 143.9 409.5 142.7 408.5 141.6C407.6 140.6 406.4 139.9 405.2 139.3C403.9 138.7 402.5 138.5 401.1 138.5C399.7 138.5 398.3 138.8 397 139.3C395.8 139.8 394.6 140.6 393.7 141.6C392.7 142.6 392 143.8 391.5 145.2C390.9 146.6 390.7 148.2 390.7 149.8ZM454.9 144.1H470.9V158.6H455V176.4H437.7V123.9H473.1V138.6H454.9V144.1Z" fill="black"></path> <path d="M477.4 166H514.4V177.7H477.4V166ZM72.7999 0.599609L0.399902 72.9996V177.4H283.6L355.8 105.2V0.599609H72.7999ZM304.4 178H356.1V126.3L304.4 178Z" fill="#C60D0D"></path> <path d="M139 122.789C136.6 122.99 134.5 121.18 134.3 118.766C134.3 118.565 134.3 118.364 134.3 118.163V82.2613C134.3 80.25 135 78.2387 136.3 76.6296L138.2 74.2161L138.4 74.015C139.3 73.1099 139.9 72.5065 141 72.5065C141.5 72.5065 143.8 72.7076 143.8 76.2274V118.264C143.9 120.979 142 122.789 139 122.789ZM78.0001 122.789C75.6001 122.99 73.5001 121.18 73.3001 118.666C73.3001 118.465 73.3001 118.264 73.3001 118.062V59.1313C73.1001 56.7178 74.9001 54.6059 77.3001 54.4048C77.5001 54.4048 77.7001 54.4048 77.9001 54.4048C80.6001 54.4048 83.1001 55.6115 84.8001 57.7234L109.1 87.3901L133.2 57.2206C134.5 55.511 136.6 54.5054 138.8 54.5054H141.2C142.7 54.5054 143.9 55.6115 143.9 57.12V57.2206C143.9 57.9245 143.7 58.6285 143.2 59.1313L114 95.737C112.5 97.6477 110.8 98.5528 109.1 98.5528C107.4 98.5528 105.9 97.6477 104.3 95.737L82.9001 69.6906V118.062C82.8001 120.979 80.9001 122.789 78.0001 122.789ZM157 122.186C151.8 122.186 148.8 119.169 148.8 113.939V58.528C148.8 55.7121 150.7 53.8014 153.7 53.8014C156.1 53.6003 158.2 55.4104 158.4 57.9246C158.4 58.1257 158.4 58.3268 158.4 58.528V112.934H202.9V58.528C202.9 55.7121 204.8 53.8014 207.8 53.8014C210.2 53.6003 212.3 55.4104 212.5 57.9246C212.5 58.1257 212.5 58.3268 212.5 58.528V113.939C212.5 119.169 209.5 122.186 204.2 122.186H157ZM225.3 122.186C220.1 122.186 217.1 119.169 217.1 113.939V62.6511C217.1 57.4217 220.1 54.4048 225.3 54.4048H274.7C279.9 54.4048 282.9 57.4217 282.9 62.6511V113.939C282.9 119.169 279.9 122.186 274.7 122.186H225.3ZM273.3 112.934V63.6567H226.6V112.934H273.3Z" fill="white"></path> </g> <defs> <clipPath id="clip0"> <rect width="600" height="178" fill="white"></rect> </clipPath> </defs> </svg> 